<svg width="142" height="104" viewBox="0 0 142 104" fill="none" xmlns="http://www.w3.org/2000/svg">
<path opacity="0.5" fill-rule="evenodd" clip-rule="evenodd" d="M0.5 53.2932L3.00825 43.9733H9.41704V27.0086L22.4352 36.2104V49.8058H29.753V21.5613H45.0533V36.4772H56.1984V10.0249H72.0746V19.3973H92.285V25.9071H104.259V15.987H114.084V38.5297H122.067V24.5317L128.553 15.987L135.039 15.3298V43.9733H141.5C135.765 67.0747 122.722 86.3143 105.644 97.7071H33.577C18.8528 87.8842 7.12781 72.2282 0.5 53.2932Z" fill="url(#paint0_linear_14230_25634)"/>
<ellipse cx="98.5178" cy="100.972" rx="16.7902" ry="2.33197" fill="#F3F6FE"/>
<g opacity="0.6">
<path d="M29.4912 87.4462V65.5871L45.6175 38.0083L64.0044 65.2609V87.4462H29.4912Z" fill="#B3C6FF"/>
<path d="M63.8918 65.0592H101.316L80.9972 38.0083H45.3486L63.8918 65.0592Z" fill="#96AEF5"/>
<path d="M64.0049 65.0591H99.4509V87.446H64.0049V65.0591Z" fill="#6D8EEE"/>
<path d="M41.6172 74.3872H49.0795V87.4463H41.6172V74.3872Z" fill="#E7EDFF"/>
<path d="M92.4547 79.9841C92.7123 79.9841 92.9211 79.7752 92.9211 79.5177C92.9211 79.2601 92.7123 79.0513 92.4547 79.0513C92.1971 79.0513 91.9883 79.2601 91.9883 79.5177C91.9883 79.7752 92.1971 79.9841 92.4547 79.9841Z" fill="#D3D7E6"/>
</g>
<path d="M129.299 37.291C129.299 57.5015 100.849 93.043 100.849 93.043H93.789C85.3609 81.052 72.3984 50.8696 72.3984 37.291C72.3984 17.0806 85.136 0.696777 100.849 0.696777C116.561 0.696777 129.299 17.0806 129.299 37.291Z" fill="#FFB04F"/>
<path d="M122.769 37.291C122.769 57.5015 94.3192 93.043 94.3192 93.043C94.3192 93.043 65.8691 57.5015 65.8691 37.291C65.8691 17.0806 78.6067 0.696777 94.3192 0.696777C110.032 0.696777 122.769 17.0806 122.769 37.291Z" fill="#FFDC4F"/>
<ellipse cx="94.3191" cy="36.609" rx="17.2566" ry="19.1222" fill="#FFF0B2"/>
<defs>
<linearGradient id="paint0_linear_14230_25634" x1="54.1999" y1="14.4545" x2="73.4249" y2="104.966" gradientUnits="userSpaceOnUse">
<stop stop-color="white"/>
<stop offset="1" stop-color="white" stop-opacity="0"/>
</linearGradient>
</defs>
</svg>
